<svg width="16" height="16" viewBox="0 0 16 16" fill="none" xmlns="http://www.w3.org/2000/svg">
<path fill-rule="evenodd" clip-rule="evenodd" d="M4.11193 10.2853C4.22196 10.6125 4.04592 10.9669 3.71875 11.0769C2.65933 11.4332 2.0963 12.3226 1.79513 13.2269C1.67555 13.5861 1.6033 13.9318 1.55988 14.2176C1.84574 14.1742 2.19146 14.102 2.55058 13.9824C3.45496 13.6812 4.3443 13.1182 4.70057 12.0588C4.81059 11.7316 5.16501 11.5556 5.49218 11.6656C5.81936 11.7756 5.99539 12.13 5.88537 12.4572C5.35101 14.0462 4.02942 14.8074 2.94551 15.1684C2.39796 15.3507 1.88536 15.4407 1.51121 15.4856C1.32323 15.5081 1.16782 15.5196 1.05741 15.5254C1.00215 15.5283 0.957984 15.5298 0.926459 15.5306C0.91069 15.531 0.898067 15.5312 0.88878 15.5313L0.877369 15.5314L0.873581 15.5314L0.872174 15.5314L0.871593 15.5314C0.871336 15.5314 0.871094 15.5314 0.871094 14.9064C0.246094 14.9064 0.246094 14.9062 0.246094 14.9059L0.246095 14.9053L0.246098 14.9039L0.246115 14.9001L0.24622 14.8887C0.246332 14.8794 0.246541 14.8668 0.246932 14.8511C0.247714 14.8195 0.249222 14.7754 0.25213 14.7201C0.25794 14.6097 0.269375 14.4543 0.291924 14.2663C0.336806 13.8922 0.426824 13.3796 0.609163 12.832C0.970109 11.7481 1.7313 10.4265 3.32032 9.89214C3.64749 9.78212 4.00191 9.95816 4.11193 10.2853ZM0.871094 14.9064H0.246094C0.246094 15.2516 0.525916 15.5314 0.871094 15.5314V14.9064Z" fill="#A259FF"/>
<path fill-rule="evenodd" clip-rule="evenodd" d="M14.4876 1.29C13.7622 1.18537 11.9765 1.14596 10.149 2.97347L5.28623 7.83621L7.94141 10.4914L12.8042 5.62865C14.6317 3.80114 14.5922 2.01545 14.4876 1.29ZM14.6689 0.0532063C13.6712 -0.0912422 11.4472 -0.0924942 9.26509 2.08959L3.9604 7.39427C3.84319 7.51148 3.77734 7.67045 3.77734 7.83621C3.77734 8.00198 3.84319 8.16095 3.9604 8.27816L7.49946 11.8172C7.74354 12.0613 8.13927 12.0613 8.38335 11.8172L13.688 6.51253C15.8701 4.33045 15.8689 2.10646 15.7244 1.10876C15.6879 0.841734 15.5649 0.593969 15.3743 0.40334C15.1837 0.212713 14.9359 0.0897602 14.6689 0.0532063Z" fill="#A259FF"/>
<path fill-rule="evenodd" clip-rule="evenodd" d="M12.3634 6.32812C12.7086 6.32812 12.9884 6.60795 12.9884 6.95312V12L12.9883 12.0089C12.9837 12.3372 12.85 12.6504 12.6164 12.8809L10.0942 15.4109C9.93404 15.5709 9.7335 15.6843 9.51395 15.7392C9.2944 15.7941 9.06407 15.7884 8.84753 15.7226C8.63099 15.6568 8.43636 15.5335 8.28442 15.3658C8.13259 15.1982 8.02907 14.9926 7.98488 14.7708C7.98484 14.7707 7.98491 14.771 7.98488 14.7708L7.32872 11.4979C7.26087 11.1594 7.48023 10.83 7.81867 10.7622C8.15712 10.6943 8.48648 10.9137 8.55433 11.2521L9.21078 14.5266L11.7384 11.9911V6.95312C11.7384 6.60795 12.0182 6.32812 12.3634 6.32812Z" fill="#A259FF"/>
<path fill-rule="evenodd" clip-rule="evenodd" d="M3.76765 2.78913L3.77655 2.78906H8.82343C9.16861 2.78906 9.44843 3.06888 9.44843 3.41406C9.44843 3.75924 9.16861 4.03906 8.82343 4.03906H3.78539L3.78034 4.04422L3.78031 4.04419L1.25 6.56669L1.25097 6.56688L4.52441 7.22313C4.86285 7.29098 5.08221 7.62035 5.01436 7.95879C4.94651 8.29724 4.61714 8.51659 4.2787 8.44874L1.00623 7.79269C1.00605 7.79265 1.00586 7.79261 1.00567 7.79258C0.783922 7.74838 0.57831 7.64486 0.410739 7.49305C0.243025 7.3411 0.119708 7.14648 0.0539434 6.92993C-0.0118209 6.71339 -0.0175654 6.48306 0.037324 6.26351C0.0922132 6.04396 0.205677 5.84343 0.365608 5.68331L0.366545 5.68237L0.366546 5.68238L2.89565 3.16108C3.12616 2.92745 3.43937 2.7938 3.76765 2.78913Z" fill="#A259FF"/>
</svg>
