<svg width="17" height="16" viewBox="0 0 17 16" fill="none" xmlns="http://www.w3.org/2000/svg">
<path fill-rule="evenodd" clip-rule="evenodd" d="M8.20312 1.25C5.78688 1.25 3.82812 3.20875 3.82812 5.625C3.82812 8.04125 5.78688 10 8.20312 10C10.6194 10 12.5781 8.04125 12.5781 5.625C12.5781 3.20875 10.6194 1.25 8.20312 1.25ZM2.57812 5.625C2.57812 2.5184 5.09652 0 8.20312 0C11.3097 0 13.8281 2.5184 13.8281 5.625C13.8281 8.7316 11.3097 11.25 8.20312 11.25C5.09652 11.25 2.57812 8.7316 2.57812 5.625Z" fill="white"/>
<path fill-rule="evenodd" clip-rule="evenodd" d="M8.20323 11.25C6.77687 11.25 5.37564 11.6255 4.14041 12.3387C2.90517 13.052 1.87947 14.0778 1.1664 15.3131C0.993838 15.6121 0.611603 15.7146 0.312654 15.542C0.0137054 15.3694 -0.0887517 14.9872 0.0838098 14.6882C0.90658 13.2629 2.09009 12.0792 3.51536 11.2562C4.94062 10.4333 6.55743 10 8.20323 10C9.84903 10 11.4658 10.4333 12.8911 11.2562C14.3164 12.0792 15.4999 13.2629 16.3226 14.6882C16.4952 14.9872 16.3928 15.3694 16.0938 15.542C15.7949 15.7146 15.4126 15.6121 15.2401 15.3131C14.527 14.0778 13.5013 13.052 12.2661 12.3387C11.0308 11.6255 9.62959 11.25 8.20323 11.25Z" fill="white"/>
</svg>
